name rise44.8762peak52.3436fall86.788.mot
datacolumns 19
datarows 27
range 12.499953 12.543282
endheader
time	ground_force1_vx	ground_force1_vy	ground_force1_vz	ground_force1_px	ground_force1_py	ground_force1_pz	ground_force2_vx	ground_force2_vy	ground_force2_vz	ground_force2_px	ground_force2_py	ground_force2_pz	ground_torque1_x	ground_torque1_y	ground_torque1_z	ground_torque2_x	ground_torque2_y	ground_torque2_z	
12.499953	78.862566	624.445259	51.510225	0.318904	0.000000	0.111135	-39.032700	207.838206	1.441877	0.016142	0.000000	-0.069719	0.000000	15.795040	0.000000	0.000000	-6.427852	0.000000	
12.501633	78.999846	630.707267	52.074188	0.317433	0.000000	0.111102	-37.198463	198.559724	1.729447	0.014672	0.000000	-0.069522	0.000000	16.002197	0.000000	0.000000	-6.122602	0.000000	
12.503282	79.088832	636.889345	52.600023	0.315965	0.000000	0.111067	-35.361312	189.490938	1.998916	0.013153	0.000000	-0.069324	0.000000	16.190981	0.000000	0.000000	-5.818326	0.000000	
12.504951	79.131231	642.990695	53.088823	0.314500	0.000000	0.111028	-33.523646	180.647644	2.251611	0.011583	0.000000	-0.069123	0.000000	16.362096	0.000000	0.000000	-5.515330	0.000000	
12.506615	79.128801	649.010408	53.541775	0.313044	0.000000	0.110986	-31.687493	172.040791	2.488600	0.009963	0.000000	-0.068920	0.000000	16.516293	0.000000	0.000000	-5.213866	0.000000	
12.508281	79.083340	654.947455	53.960150	0.311597	0.000000	0.110942	-29.854586	163.674928	2.710539	0.008292	0.000000	-0.068713	0.000000	16.654356	0.000000	0.000000	-4.914138	0.000000	
12.509955	78.996675	660.800678	54.345290	0.310163	0.000000	0.110895	-28.026475	155.546835	2.917520	0.006572	0.000000	-0.068501	0.000000	16.777101	0.000000	0.000000	-4.616319	0.000000	
12.511616	78.870658	666.568789	54.698604	0.308744	0.000000	0.110845	-26.204696	147.644487	3.108936	0.004802	0.000000	-0.068284	0.000000	16.885371	0.000000	0.000000	-4.320576	0.000000	
12.513287	78.707151	672.250365	55.021554	0.307342	0.000000	0.110794	-24.390986	139.946550	3.283383	0.002983	0.000000	-0.068061	0.000000	16.980023	0.000000	0.000000	-4.027098	0.000000	
12.514948	78.508024	677.843847	55.315646	0.305959	0.000000	0.110740	-22.587524	132.422554	3.438609	0.001116	0.000000	-0.067830	0.000000	17.061929	0.000000	0.000000	-3.736131	0.000000	
12.516616	78.275137	683.347542	55.582421	0.304596	0.000000	0.110684	-20.797199	125.033885	3.571537	-0.000796	0.000000	-0.067589	0.000000	17.131969	0.000000	0.000000	-3.448010	0.000000	
12.518286	78.010341	688.759623	55.823446	0.303256	0.000000	0.110627	-19.023874	117.735695	3.678360	-0.002752	0.000000	-0.067337	0.000000	17.191021	0.000000	0.000000	-3.163200	0.000000	
12.519953	77.715462	694.078133	56.040301	0.301939	0.000000	0.110568	-17.272631	110.479740	3.754734	-0.004749	0.000000	-0.067070	0.000000	17.239964	0.000000	0.000000	-2.882326	0.000000	
12.521620	77.392297	699.300991	56.234571	0.300648	0.000000	0.110508	-15.549954	103.218104	3.796049	-0.006784	0.000000	-0.066788	0.000000	17.279663	0.000000	0.000000	-2.606205	0.000000	
12.523282	77.042606	704.425998	56.407837	0.299382	0.000000	0.110446	-13.863839	95.907624	3.797791	-0.008852	0.000000	-0.066486	0.000000	17.310973	0.000000	0.000000	-2.335861	0.000000	
12.524955	76.668102	709.450842	56.561664	0.298144	0.000000	0.110384	-12.223788	88.514763	3.755970	-0.010950	0.000000	-0.066161	0.000000	17.334731	0.000000	0.000000	-2.072536	0.000000	
12.526614	76.270450	714.373112	56.697598	0.296932	0.000000	0.110320	-10.640681	81.020551	3.667576	-0.013070	0.000000	-0.065808	0.000000	17.351752	0.000000	0.000000	-1.817680	0.000000	
12.528288	75.851257	719.190302	56.817150	0.295749	0.000000	0.110256	-9.126489	73.425111	3.531048	-0.015204	0.000000	-0.065422	0.000000	17.362824	0.000000	0.000000	-1.572924	0.000000	
12.529946	75.412064	723.899823	56.921794	0.294594	0.000000	0.110191	-7.693842	65.751244	3.346687	-0.017343	0.000000	-0.064995	0.000000	17.368710	0.000000	0.000000	-1.340037	0.000000	
12.531622	74.954350	728.499015	57.012958	0.293468	0.000000	0.110126	-6.355459	58.046511	3.116978	-0.019475	0.000000	-0.064520	0.000000	17.370137	0.000000	0.000000	-1.120858	0.000000	
12.533284	74.479519	732.985160	57.092015	0.292369	0.000000	0.110060	-5.123453	50.383276	2.846755	-0.021583	0.000000	-0.063986	0.000000	17.367803	0.000000	0.000000	-0.917219	0.000000	
12.534946	73.988902	737.355491	57.160280	0.291299	0.000000	0.109995	-4.008580	42.856328	2.543179	-0.023648	0.000000	-0.063380	0.000000	17.362366	0.000000	0.000000	-0.730842	0.000000	
12.536618	73.483751	741.607208	57.219004	0.290256	0.000000	0.109929	-3.019460	35.577858	2.215481	-0.025643	0.000000	-0.062683	0.000000	17.354446	0.000000	0.000000	-0.563236	0.000000	
12.538280	72.965241	745.737492	57.269367	0.289239	0.000000	0.109864	-2.161877	28.669940	1.874467	-0.027535	0.000000	-0.061874	0.000000	17.344625	0.000000	0.000000	-0.415588	0.000000	
12.539955	72.434462	749.743516	57.312474	0.288249	0.000000	0.109799	-1.438210	22.255038	1.531818	0.000000	0.000000	0.000000	0.000000	17.333442	0.000000	0.000000	-0.156195	0.000000	
12.541620	71.892427	753.622463	57.349354	0.287284	0.000000	0.109734	-0.847088	16.445580	1.199255	0.000000	0.000000	0.000000	0.000000	17.321393	0.000000	0.000000	-0.095130	0.000000	
12.543282	71.340061	757.371539	57.380955	0.286343	0.000000	0.109670	-0.383315	11.333985	0.887662	0.000000	0.000000	0.000000	0.000000	17.308934	0.000000	0.000000	-0.046652	0.000000	
